# xmcd
#
# Track frame offsets:
#	182
#	26247
#	53937
#	74697
#	91502
#	109637
#	127472
#	140245
#	155980
#	170250
#	198412
#	210637
#	237860
#	254555
#	267520
#	282530
#
# Disc length: 4004 seconds
#
# Revision: 0
# Processed by: cddbd v1.5.2PL0 Copyright (c) Steve Scherf et al.
# Submitted via: EasyCDDAExtractor 2010.6.0.0
#
DISCID=070fa210
DTITLE=Guido Toffoletti - The way it was: 1978-1992
DYEAR=1992
DGENRE=blues
TTITLE0=Big boss man
TTITLE1=See see rider
TTITLE2=Baby what you want me to do
TTITLE3=Boom boom
TTITLE4=Late again
TTITLE5=Talk to my lawyer
TTITLE6=Watch yourself
TTITLE7=Up and down with you
TTITLE8=Walkin' blues
TTITLE9=Still the same
TTITLE10=The same old story
TTITLE11=Hold me again
TTITLE12=Let me in baby
TTITLE13=Evil
TTITLE14=Please be mine
TTITLE15=We want that woman
EXTD=
EXTT0=
EXTT1=
EXTT2=
EXTT3=
EXTT4=
EXTT5=
EXTT6=
EXTT7=
EXTT8=
EXTT9=
EXTT10=
EXTT11=
EXTT12=
EXTT13=
EXTT14=
EXTT15=
PLAYORDER=
